<svg aria-hidden="true" style="position: absolute; width: 0; height: 0; overflow: hidden;" version="1.1" xmlns="http://www.w3.org/2000/svg" xmlns:xlink="http://www.w3.org/1999/xlink">
<defs>
<symbol id="icon-hand-1" viewBox="0 0 32 32">
<path fill="#969696" style="fill: var(--color1, #969696)" d="M25.199 1.109c-0.796-0.749-1.815-1.109-2.842-1.109-1.156 0-2.323 0.456-3.194 1.327l-0.373 0.373-0.374-0.375c-0.87-0.87-2.038-1.326-3.194-1.326-1.027 0-2.046 0.36-2.842 1.109-1.751 1.648-1.782 4.406-0.094 6.094l6.503 6.503 6.503-6.503c1.688-1.688 1.657-4.446-0.094-6.094z"></path>
<path fill="#969696" style="fill: var(--color1, #969696)" d="M31.582 17.016c-0.999-0.677-2.177-0.485-3.22 0.116s-7.030 5.721-7.030 5.721l-5.894 0.001c-0.274 0-0.571-0.308-0.571-0.581 0-0.321 0.28-0.571 0.571-0.571h3.606c1.262 0 2.675-0.822 2.675-2.284 0-1.553-1.413-2.284-2.675-2.284-2.19 0-2.616 0.009-2.616 0.009-0.877 0-1.767-0.053-2.452-0.419-0.914-0.468-1.967-0.733-3.091-0.733-1.887 0-3.576 0.753-4.734 1.939l-6.151 6.056 6.853 6.853 2.284-2.284h11.567c1.151 0 2.263-0.423 3.123-1.187l7.832-8.786c0.479-0.425 0.451-1.206-0.078-1.566z"></path>
</symbol>
<symbol id="icon-hand-2" viewBox="0 0 30 32">
<path fill="#969696" style="fill: var(--color1, #969696)" d="M28.93 20.952c-0.254-0.334-0.596-0.595-0.986-0.749-0.683-0.27-1.423-0.214-2.046 0.146l-4.112 2.374c-0.023 0.347-0.089 0.697-0.204 1.044-0.707 2.132-2.989 3.314-5.159 2.732l-4.065-1.089c-0.5-0.134-0.797-0.648-0.663-1.148s0.648-0.797 1.148-0.663l4.127 1.106c1.25 0.335 2.536-0.407 2.87-1.657s-0.407-2.536-1.657-2.871l-6.3-1.688c-1.209-0.324-2.473-0.158-3.557 0.468l-7.856 4.536c-0.448 0.259-0.602 0.832-0.343 1.281l3.902 6.758c0.124 0.215 0.329 0.372 0.569 0.437s0.496 0.031 0.711-0.094l3.543-2.046 7.579 0.489c0.927 0.060 1.841-0.154 2.645-0.618l9.166-5.292c1.206-0.696 1.559-2.31 0.689-3.456z"></path>
<path fill="#969696" style="fill: var(--color1, #969696)" d="M8.456 15h12.5c0.518 0 0.938-0.42 0.938-0.938 0-2.488-1.271-4.685-3.198-5.976-1.038 0.991-2.444 1.601-3.989 1.601s-2.951-0.61-3.989-1.601c-1.927 1.291-3.198 3.487-3.198 5.976 0 0.518 0.42 0.938 0.938 0.938z"></path>
<path fill="#969696" style="fill: var(--color1, #969696)" d="M14.706 7.813c2.157 0 3.906-1.749 3.906-3.906s-1.749-3.906-3.906-3.906c-2.157 0-3.906 1.749-3.906 3.906s1.749 3.906 3.906 3.906z"></path>
</symbol>
<symbol id="icon-star" viewBox="0 0 34 32">
<path fill="#969696" style="fill: var(--color1, #969696)" d="M33.498 12.151c-0.116-0.356-0.423-0.615-0.793-0.669l-10.399-1.511-4.651-9.423c-0.165-0.335-0.507-0.548-0.881-0.548s-0.716 0.212-0.881 0.548l-4.651 9.423-10.399 1.511c-0.37 0.054-0.678 0.313-0.793 0.669s-0.019 0.746 0.249 1.008l7.525 7.335-1.776 10.357c-0.063 0.369 0.088 0.741 0.391 0.961 0.171 0.124 0.374 0.188 0.578 0.188 0.156 0 0.313-0.037 0.457-0.113l9.301-4.89 9.301 4.89c0.331 0.174 0.732 0.145 1.035-0.075s0.454-0.593 0.391-0.961l-1.777-10.357 7.526-7.335c0.268-0.261 0.364-0.652 0.249-1.007z"></path>
</symbol>
</defs>
</svg>
