<svg width="351" height="366" viewBox="0 0 351 366" fill="none" xmlns="http://www.w3.org/2000/svg">
<path opacity="0.5" d="M225.997 317.641C102.812 315.772 100.501 222.702 101.303 196.892C102.104 171.083 130.03 143.012 143.431 150.894C156.832 158.777 153.154 178.629 134.905 190.284C112.186 204.794 102.871 201.68 82.2732 193.763C61.6756 185.845 38.1253 138.276 46.2301 106.118C54.3349 73.9594 70.1221 47.9014 99.3873 29.6666" stroke="#767676" stroke-linejoin="round" stroke-dasharray="6 4"/>
<circle cx="100.233" cy="29.2371" r="7" transform="rotate(-66.3371 100.233 29.2371)" fill="#454545"/>
<circle cx="100.233" cy="29.2373" r="3" transform="rotate(-66.3371 100.233 29.2373)" fill="white"/>
<path d="M213.774 328.819L224.236 320.042L228.502 320.417C229.175 320.476 229.867 320.386 230.526 320.147L230.96 319.964C231.54 319.755 231.933 319.244 231.987 318.631C232.041 318.018 231.742 317.447 231.231 317.153L230.79 316.871C230.205 316.534 229.541 316.325 228.866 316.266L224.601 315.892L215.828 305.431C215.381 304.898 214.754 304.571 214.061 304.51L212.845 304.404C212.655 304.387 212.472 304.475 212.367 304.634C212.261 304.792 212.249 304.996 212.339 305.164L217.747 315.493C216.169 315.452 214.847 315.468 213.238 315.488L211.589 315.509L209.508 311.666C209.423 311.511 209.269 311.41 209.095 311.394L208.057 311.303C207.901 311.29 207.745 311.348 207.636 311.462C207.525 311.577 207.474 311.734 207.495 311.89L208.109 316.536L206.695 321.005C206.683 321.041 206.676 321.078 206.673 321.116C206.662 321.233 206.692 321.351 206.758 321.451C206.847 321.582 206.99 321.666 207.147 321.68L208.185 321.771C208.359 321.786 208.529 321.714 208.638 321.576L211.353 318.153L212.978 318.462C214.557 318.761 215.855 319.007 217.416 319.241L210.295 328.471C210.177 328.623 210.154 328.824 210.23 328.997C210.305 329.172 210.47 329.291 210.66 329.308L211.876 329.415C212.569 329.476 213.244 329.264 213.774 328.819Z" fill="#454545"/>
</svg>
