<svg aria-hidden="true" style="position: absolute; width: 0; height: 0; overflow: hidden;" version="1.1" xmlns="http://www.w3.org/2000/svg" xmlns:xlink="http://www.w3.org/1999/xlink">
<defs>
<symbol id="icon-book" viewBox="0 0 32 32">
<path fill="#969696" style="fill: var(--color1, #969696)" d="M13.592 26.121c0.231 0.313 0.585 0.511 0.973 0.541 0.035 0.003 0.069 0.004 0.103 0.004 0.352 0 0.692-0.139 0.943-0.391l7.667-7.667c0.521-0.521 0.521-1.364 0-1.885s-1.364-0.521-1.885 0l-6.568 6.568-2.748-3.747c-0.436-0.593-1.271-0.723-1.864-0.287s-0.723 1.271-0.287 1.864l3.667 4.999z"></path>
<path fill="#969696" style="fill: var(--color1, #969696)" d="M28 4h-1.333v-2.667c0-0.736-0.597-1.333-1.333-1.333h-1.333c-0.736 0-1.333 0.597-1.333 1.333v2.667h-13.333v-2.667c0-0.736-0.597-1.333-1.333-1.333h-1.333c-0.736 0-1.333 0.597-1.333 1.333v2.667h-1.333c-2.205 0-4 1.795-4 4v20c0 2.205 1.795 4 4 4h24c2.205 0 4-1.795 4-4v-20c0-2.205-1.795-4-4-4zM29.333 28c0 0.735-0.599 1.333-1.333 1.333h-24c-0.735 0-1.333-0.599-1.333-1.333v-14.613h26.667v14.613z"></path>
</symbol>
<symbol id="icon-clock" viewBox="0 0 32 32">
<path fill="#969696" style="fill: var(--color1, #969696)" d="M31.7 12.865c-1.202-6.291-6.275-11.363-12.565-12.565-11.253-2.149-20.985 7.582-18.835 18.835 1.202 6.291 6.274 11.363 12.565 12.565 11.253 2.149 20.985-7.582 18.836-18.835zM23.414 23.415c-0.391 0.391-0.902 0.586-1.414 0.586s-1.023-0.195-1.414-0.586l-6-6c-0.375-0.375-0.586-0.883-0.586-1.414v-8c0-1.106 0.896-2 2-2s2 0.895 2 2v7.172l5.414 5.414c0.781 0.781 0.781 2.047 0 2.828z"></path>
</symbol>
<symbol id="icon-compass" viewBox="0 0 32 32">
<path fill="#969696" style="fill: var(--color1, #969696)" d="M16 0c-8.822 0-16 7.178-16 16s7.178 16 16 16c8.822 0 15.999-7.178 15.999-16s-7.177-16-15.999-16zM23.908 9.115l-5.067 9.416c-0.069 0.129-0.175 0.235-0.305 0.305l-9.415 5.066c-0.112 0.060-0.234 0.089-0.355 0.089-0.194 0-0.386-0.075-0.531-0.22-0.234-0.234-0.287-0.594-0.13-0.886l5.066-9.415c0.070-0.129 0.176-0.236 0.305-0.305l9.416-5.067c0.292-0.157 0.652-0.104 0.886 0.13s0.287 0.594 0.13 0.886z"></path>
<path fill="#969696" style="fill: var(--color1, #969696)" d="M16.016 14.257c-0.965 0-1.747 0.781-1.747 1.747s0.782 1.748 1.747 1.748c0.964 0 1.747-0.783 1.747-1.748s-0.782-1.747-1.747-1.747z"></path>
</symbol>
<symbol id="icon-human" viewBox="0 0 32 32">
<path fill="#969696" style="fill: var(--color1, #969696)" d="M15.978 15.752c3.926 0 7.119-3.533 7.119-7.876s-3.194-7.876-7.119-7.876c-3.926 0-7.12 3.533-7.12 7.876s3.194 7.876 7.12 7.876z"></path>
<path fill="#969696" style="fill: var(--color1, #969696)" d="M24.178 14.719c-0.415-0.090-0.842 0.091-1.065 0.452-2.547 4.126-6.653 4.245-7.113 4.245s-4.566-0.119-7.112-4.244c-0.223-0.362-0.652-0.543-1.067-0.452-5.53 1.217-6.988 9.564-6.557 16.342 0.034 0.527 0.471 0.938 0.999 0.938h27.474c0.528 0 0.965-0.41 0.998-0.938 0.431-6.785-1.027-15.137-6.558-16.343z"></path>
</symbol>
<symbol id="icon-location" viewBox="0 0 32 32">
<path fill="#969696" style="fill: var(--color1, #969696)" d="M16.001 0c-5.881 0-10.667 4.785-10.667 10.667 0 1.766 0.441 3.516 1.281 5.069l8.803 15.921c0.117 0.212 0.341 0.344 0.583 0.344s0.466-0.132 0.583-0.344l8.806-15.926c0.836-1.547 1.277-3.298 1.277-5.064 0-5.881-4.785-10.667-10.667-10.667zM16.001 16c-2.941 0-5.333-2.393-5.333-5.333s2.393-5.333 5.333-5.333c2.941 0 5.333 2.393 5.333 5.333s-2.393 5.333-5.333 5.333z"></path>
</symbol>
</defs>
</svg>
